# xmcd CD database file
#
# Track frame offsets:
#	150
#	16946
#	32274
#	44566
#	60207
#	72032
#	86426
#	105496
#	133963
#	165705
#	190743
#	212987
#
# Disc length: 3079 seconds
#
# Revision: 2
# Processed by: cddbd v1.5.2PL0 Copyright (c) Steve Scherf et al.
# Submitted via: CDex 1.79
#
DISCID=980c050c
DTITLE=Lester Young - The Savoy Recordings CD2
DYEAR=0
DGENRE=Jazz
TTITLE0=Body and Soul
TTITLE1=Salute to Fats
TTITLE2=Crazy over J-Z Tk2
TTITLE3=Ghost of a Chance
TTITLE4=June Bug
TTITLE5=Neenah
TTITLE6=Up and Adam
TTITLE7=One O'Clock Blues
TTITLE8=How High the Moon
TTITLE9=Pennies from Heaven
TTITLE10=Lester's Mop Mop Blues
TTITLE11=Jumpin' with Symphony Sid
EXTD=YEAR: 0
EXTT0=
EXTT1=
EXTT2=
EXTT3=
EXTT4=
EXTT5=
EXTT6=
EXTT7=
EXTT8=
EXTT9=
EXTT10=
EXTT11=
PLAYORDER=
